<?xml version="1.0" encoding="UTF-8"?>
<svg width="1200" height="2000" viewBox="0 0 1200 2000" xmlns="http://www.w3.org/2000/svg">
  <defs>
    <style>
      .bg { fill: #14171c; }
      .panel { fill: #1e2229; stroke: #3a4251; stroke-width: 1; rx: 12; }
      .panel-inner { fill: #2a2f38; stroke: #3a4251; stroke-width: 1; rx: 8; }
      .text-primary { fill: #f3ede4; font-family: system-ui, sans-serif; }
      .text-secondary { fill: #8593a9; font-family: system-ui, sans-serif; }
      .text-muted { fill: #66768f; font-family: system-ui, sans-serif; }
      .accent-coral { fill: #e07356; }
      .accent-teal { fill: #4a9c94; }
      .accent-gold { fill: #d4a84b; }
      .accent-plum { fill: #8b5a8b; }
      .btn-primary { fill: #e07356; rx: 6; }
      .btn-secondary { fill: #3a4251; rx: 6; }
      .badge { rx: 10; }
      .badge-coral { fill: rgba(224, 115, 86, 0.2); }
      .badge-teal { fill: rgba(74, 156, 148, 0.2); }
      .badge-gold { fill: rgba(212, 168, 75, 0.2); }
      .badge-plum { fill: rgba(139, 90, 139, 0.2); }
      .badge-amber { fill: rgba(245, 158, 11, 0.2); }
      .progress-bg { fill: #3a4251; rx: 4; }
      .progress-fill { rx: 4; }
      .divider { stroke: #3a4251; stroke-width: 1; }
      .title { font-size: 18px; font-weight: 600; }
      .subtitle { font-size: 14px; }
      .label { font-size: 12px; }
      .small { font-size: 10px; }
    </style>
  </defs>
  
  <!-- Background -->
  <rect class="bg" width="1200" height="2000"/>
  
  <!-- ======================= -->
  <!-- TAB 4: DATA (SYNTHETIC) -->
  <!-- ======================= -->
  <text x="50" y="40" class="text-primary title">Tab 4: Data Generation (Control Bar + 2 Collapsible Cols + Progress + Preview)</text>
  
  <!-- Control Bar (full width) -->
  <rect x="50" y="60" width="1100" height="55" class="panel"/>
  <text x="70" y="85" class="text-muted" font-size="9">🖥️</text>
  <rect x="90" y="72" width="200" height="28" class="panel-inner"/>
  <text x="100" y="90" class="text-primary small">TaskFlow Support Agent ▾</text>
  
  <text x="310" y="90" class="text-muted" font-size="9">#</text>
  <rect x="325" y="72" width="50" height="28" class="panel-inner"/>
  <text x="343" y="90" class="text-primary small">20</text>
  <text x="385" y="90" class="text-muted" font-size="9">queries</text>
  
  <rect x="440" y="72" width="120" height="28" class="panel-inner"/>
  <text x="455" y="90" class="text-primary small">Cross Product ▾</text>
  
  <text x="580" y="90" class="text-muted" font-size="9">⚙️ Advanced</text>
  
  <rect x="950" y="68" width="180" height="35" class="btn-primary"/>
  <text x="980" y="90" class="text-primary small">⚡ GENERATE 20 QUERIES</text>
  
  <!-- Two Collapsible Columns -->
  <!-- Left: Testing Dimensions (Collapsible) -->
  <rect x="50" y="130" width="540" height="200" class="panel"/>
  <text x="70" y="155" class="text-muted" font-size="9">▼</text>
  <text x="90" y="155" class="accent-gold" font-size="11">🎯</text>
  <text x="110" y="155" class="text-primary" font-size="13" font-weight="500">Testing dimensions</text>
  <rect x="245" y="143" width="20" height="16" rx="8" fill="#3a4251"/>
  <text x="251" y="155" class="text-muted" font-size="9">3</text>
  
  <rect x="360" y="142" width="130" height="22" class="btn-secondary"/>
  <text x="375" y="157" class="text-muted" font-size="8">Import from AGENT_INFO ⓘ</text>
  <rect x="500" y="142" width="25" height="22" class="btn-primary"/>
  <text x="508" y="157" class="text-primary" font-size="10">+</text>
  
  <!-- Dimension cards (collapsible content) -->
  <rect x="70" y="175" width="500" height="60" class="panel-inner"/>
  <text x="90" y="198" class="text-primary small" font-weight="500">personas</text>
  <rect x="150" y="188" width="18" height="14" rx="7" fill="#3a4251"/>
  <text x="155" y="198" class="text-muted" font-size="8">5</text>
  <text x="490" y="198" class="text-muted" font-size="9">✏️ 🗑️</text>
  <rect x="90" y="208" width="75" height="16" rx="4" fill="#3a4251"/>
  <text x="97" y="219" class="text-muted" font-size="7">first_time_user</text>
  <rect x="170" y="208" width="65" height="16" rx="4" fill="#3a4251"/>
  <text x="177" y="219" class="text-muted" font-size="7">power_user</text>
  <rect x="240" y="208" width="95" height="16" rx="4" fill="#3a4251"/>
  <text x="247" y="219" class="text-muted" font-size="7">frustrated_customer</text>
  <text x="345" y="219" class="text-muted" font-size="7">...</text>
  
  <rect x="70" y="245" width="500" height="60" class="panel-inner"/>
  <text x="90" y="268" class="text-primary small" font-weight="500">scenarios</text>
  <rect x="160" y="258" width="18" height="14" rx="7" fill="#3a4251"/>
  <text x="165" y="268" class="text-muted" font-size="8">8</text>
  <text x="490" y="268" class="text-muted" font-size="9">✏️ 🗑️</text>
  <rect x="90" y="278" width="75" height="16" rx="4" fill="#3a4251"/>
  <text x="97" y="289" class="text-muted" font-size="7">pricing_inquiry</text>
  <rect x="170" y="278" width="80" height="16" rx="4" fill="#3a4251"/>
  <text x="177" y="289" class="text-muted" font-size="7">refund_request</text>
  <text x="260" y="289" class="text-muted" font-size="7">...</text>
  
  <text x="70" y="325" class="text-muted" font-size="8">(Click ▼/▲ to collapse/expand)</text>
  
  <!-- Right: Generated Batches (Collapsible) -->
  <rect x="610" y="130" width="540" height="200" class="panel"/>
  <text x="630" y="155" class="text-muted" font-size="9">▼</text>
  <text x="650" y="155" class="accent-gold" font-size="11">⚡</text>
  <text x="670" y="155" class="text-primary" font-size="13" font-weight="500">Generated batches</text>
  <rect x="810" y="143" width="24" height="16" rx="8" fill="#3a4251"/>
  <text x="817" y="155" class="text-muted" font-size="9">10</text>
  
  <!-- Batch cards -->
  <rect x="630" y="175" width="500" height="50" class="panel-inner"/>
  <text x="650" y="195" class="text-muted" font-size="9">☐</text>
  <text x="670" y="195" class="accent-gold small">batch_85ab5c</text>
  <text x="1060" y="195" class="text-muted" font-size="8">📋 🗑️</text>
  <rect x="670" y="203" width="35" height="14" rx="4" fill="rgba(59,130,246,0.3)"/>
  <text x="677" y="213" fill="#60a5fa" font-size="7">ready</text>
  <text x="715" y="213" class="text-muted" font-size="8">5 queries</text>
  <text x="1040" y="213" class="text-muted" font-size="8">1m ago</text>
  
  <rect x="630" y="235" width="500" height="50" class="panel-inner"/>
  <text x="650" y="255" class="text-muted" font-size="9">☐</text>
  <text x="670" y="255" class="accent-gold small">batch_906fb6</text>
  <rect x="670" y="263" width="35" height="14" rx="4" fill="rgba(59,130,246,0.3)"/>
  <text x="677" y="273" fill="#60a5fa" font-size="7">ready</text>
  <text x="715" y="273" class="text-muted" font-size="8">5 queries</text>
  <text x="1040" y="273" class="text-muted" font-size="8">2m ago</text>
  
  <rect x="630" y="295" width="500" height="30" class="panel-inner"/>
  <text x="650" y="315" class="text-muted" font-size="9">☐</text>
  <text x="670" y="315" class="accent-gold small">batch_f8d4bb</text>
  <text x="785" y="315" class="text-muted" font-size="8">20 queries · 3m ago</text>
  
  <!-- Generation Progress Bar (below columns) -->
  <rect x="50" y="350" width="1100" height="65" rx="8" fill="rgba(212,168,75,0.1)" stroke="rgba(212,168,75,0.3)"/>
  <text x="70" y="375" class="text-primary small">Generating queries...</text>
  <text x="1040" y="375" class="accent-gold" font-size="9">5 / 21</text>
  <!-- Stop button -->
  <rect x="1090" y="362" width="22" height="22" rx="4" fill="rgba(224,115,86,0.2)"/>
  <text x="1096" y="378" class="accent-coral" font-size="11">■</text>
  <rect x="70" y="385" width="1060" height="8" class="progress-bg"/>
  <rect x="70" y="385" width="253" height="8" rx="4" class="accent-gold"/>
  <text x="70" y="408" class="text-muted" font-size="9">Latest: "Hey there, I hope you can help me out! I'd like to downgrade..."</text>
  
  <!-- Batch Data Preview (full width, expanded) -->
  <rect x="50" y="430" width="1100" height="185" class="panel"/>
  <text x="70" y="455" class="accent-teal" font-size="11">💬</text>
  <text x="90" y="455" class="text-primary" font-size="13" font-weight="500">Batch data preview</text>
  <rect x="230" y="443" width="45" height="16" rx="8" fill="#3a4251"/>
  <text x="240" y="455" class="text-muted" font-size="9">5 items</text>
  
  <!-- Query cards -->
  <rect x="70" y="475" width="1060" height="60" class="panel-inner"/>
  <text x="90" y="493" class="text-muted" font-size="9">☐</text>
  <rect x="110" y="483" width="20" height="14" rx="4" fill="#3a4251"/>
  <text x="115" y="493" class="text-muted" font-size="7">#1</text>
  <rect x="135" y="483" width="55" height="14" rx="7" class="badge-teal"/>
  <text x="143" y="493" class="accent-teal" font-size="7">multi_step</text>
  <rect x="195" y="483" width="95" height="14" rx="7" class="badge-teal"/>
  <text x="203" y="493" class="accent-teal" font-size="7">frustrated_customer</text>
  <rect x="295" y="483" width="70" height="14" rx="7" class="badge-teal"/>
  <text x="303" y="493" class="accent-teal" font-size="7">pricing_inquiry</text>
  <text x="1080" y="493" class="text-muted" font-size="9">📋</text>
  <text x="90" y="518" class="text-secondary small">"Hey, I really need some help with the pricing plans for TaskFlow. I was looking</text>
  <text x="90" y="530" class="text-secondary small">at the website, and it's just so confusing..."</text>
  
  <rect x="70" y="545" width="1060" height="55" class="panel-inner"/>
  <text x="90" y="563" class="text-muted" font-size="9">☐</text>
  <rect x="110" y="553" width="20" height="14" rx="4" fill="#3a4251"/>
  <text x="115" y="563" class="text-muted" font-size="7">#2</text>
  <rect x="135" y="553" width="40" height="14" rx="7" class="badge-teal"/>
  <text x="143" y="563" class="accent-teal" font-size="7">simple</text>
  <rect x="180" y="553" width="75" height="14" rx="7" class="badge-teal"/>
  <text x="188" y="563" class="accent-teal" font-size="7">first_time_user</text>
  <rect x="260" y="553" width="80" height="14" rx="7" class="badge-teal"/>
  <text x="268" y="563" class="accent-teal" font-size="7">feature_question</text>
  <text x="90" y="588" class="text-secondary small">"Hey! I just started using TaskFlow and I'm a bit confused. Can you explain..."</text>
  
  <!-- ======================= -->
  <!-- TAB 5: RUNS -->
  <!-- ======================= -->
  <text x="50" y="670" class="text-primary title">Tab 5: Runs (3 + 5 + 4 grid)</text>
  
  <!-- Left Column - Agent Selection -->
  <rect x="50" y="690" width="250" height="350" class="panel"/>
  <text x="70" y="720" class="text-primary" font-size="14" font-weight="500">🖥️ Select Agent</text>
  
  <rect x="70" y="740" width="210" height="50" rx="8" fill="rgba(74,156,148,0.1)" stroke="rgba(74,156,148,0.5)"/>
  <text x="90" y="765" class="text-primary small">Customer Support</text>
  <text x="90" y="780" class="accent-teal" font-size="9">🟢 connected</text>
  
  <rect x="70" y="800" width="210" height="50" class="panel-inner"/>
  <text x="90" y="825" class="text-primary small">Research Assistant</text>
  <text x="90" y="840" class="accent-coral" font-size="9">🔴 error</text>
  
  <!-- Middle Column - Execution -->
  <rect x="320" y="690" width="450" height="350" class="panel"/>
  
  <!-- Active execution -->
  <rect x="340" y="710" width="410" height="100" rx="10">
    <animate attributeName="fill" values="rgba(74,156,148,0.1);rgba(139,90,139,0.1)" dur="2s" repeatCount="indefinite"/>
  </rect>
  <rect x="340" y="710" width="410" height="100" rx="10" fill="none" stroke="rgba(74,156,148,0.3)"/>
  <circle cx="370" cy="750" r="18" fill="rgba(74,156,148,0.2)"/>
  <text x="365" y="755" class="accent-teal small">🔄</text>
  <text x="400" y="740" class="text-primary" font-size="14" font-weight="500">Executing Batch</text>
  <text x="400" y="760" class="text-muted small">"Batch Dec 4"</text>
  <text x="360" y="785" class="text-muted" font-size="9">Query 12 of 20</text>
  <text x="700" y="785" class="text-muted" font-size="9">60%</text>
  <rect x="360" y="792" width="370" height="8" class="progress-bg"/>
  <rect x="360" y="792" width="222" height="8" rx="4">
    <animate attributeName="fill" values="#4a9c94;#8b5a8b" dur="2s" repeatCount="indefinite"/>
  </rect>
  
  <!-- Pending Runs -->
  <text x="340" y="840" class="text-primary" font-size="12" font-weight="500">⏰ Pending Runs (2)</text>
  
  <rect x="340" y="860" width="410" height="55" class="panel-inner"/>
  <text x="360" y="885" class="text-primary small">Batch Dec 4</text>
  <rect x="460" y="873" width="60" height="16" rx="8" class="badge-amber"/>
  <text x="470" y="885" class="accent-gold" font-size="8">20 queries</text>
  <text x="360" y="903" class="text-muted" font-size="9">Created 2h ago</text>
  <rect x="660" y="875" width="60" height="25" class="btn-primary"/>
  <text x="675" y="892" class="text-primary" font-size="9">▶ Run</text>
  
  <!-- Completed Runs -->
  <text x="340" y="950" class="text-primary" font-size="12" font-weight="500">✅ Completed Runs (3)</text>
  
  <rect x="340" y="970" width="410" height="50" rx="8" fill="rgba(74,156,148,0.05)" stroke="rgba(74,156,148,0.3)"/>
  <text x="360" y="995" class="text-primary small">Batch Dec 2 (selected)</text>
  <rect x="480" y="983" width="60" height="16" rx="4" fill="rgba(74,156,148,0.3)"/>
  <text x="488" y="995" class="accent-teal" font-size="8">completed</text>
  <text x="650" y="995" class="text-muted" font-size="9">🔄 Re-run</text>
  
  <!-- Right Column - AI Review + Results -->
  <rect x="790" y="690" width="360" height="350" class="panel"/>
  
  <!-- AI Review -->
  <text x="810" y="720" class="text-primary" font-size="14" font-weight="500">✨ AI Review</text>
  
  <rect x="810" y="740" width="320" height="80" class="panel-inner"/>
  <text x="900" y="770" class="accent-gold" text-anchor="middle">✨</text>
  <text x="900" y="790" class="text-muted small" text-anchor="middle">Analyze this batch with AI</text>
  <text x="900" y="805" class="text-muted" font-size="9" text-anchor="middle">to discover failure patterns</text>
  
  <rect x="870" y="830" width="140" height="30" class="btn-primary"/>
  <text x="895" y="850" class="text-primary small">✨ Run Auto Review</text>
  
  <!-- Review Results (when complete) -->
  <text x="810" y="885" class="text-muted small">FAILURE CATEGORIES:</text>
  
  <rect x="810" y="900" width="320" height="50" class="panel-inner"/>
  <text x="830" y="920" class="text-muted" font-size="9">▸</text>
  <text x="845" y="920" class="text-primary small">Hallucination</text>
  <rect x="945" y="910" width="55" height="16" rx="8" class="badge-amber"/>
  <text x="955" y="922" class="accent-gold" font-size="8">(5) 25%</text>
  <text x="845" y="940" class="text-muted" font-size="9">Agent generates false information</text>
  
  <rect x="810" y="960" width="320" height="40" class="panel-inner"/>
  <text x="830" y="985" class="text-muted" font-size="9">▸</text>
  <text x="845" y="985" class="text-primary small">Tool Errors</text>
  <rect x="925" y="975" width="55" height="16" rx="8" class="badge-amber"/>
  <text x="935" y="987" class="accent-gold" font-size="8">(3) 15%</text>
  
  <!-- ======================= -->
  <!-- TAB 6: SETTINGS -->
  <!-- ======================= -->
  <text x="50" y="1090" class="text-primary title">Tab 6: Settings</text>
  
  <!-- Header -->
  <rect x="50" y="1110" width="1100" height="60" class="panel"/>
  <text x="70" y="1140" class="text-primary" font-size="16" font-weight="600">Settings</text>
  <text x="70" y="1158" class="text-muted small">Configure LLM and Weave connections for the application</text>
  <rect x="900" y="1125" width="80" height="25" rx="10" class="badge-gold"/>
  <text x="910" y="1142" class="accent-gold" font-size="9">⚠️ Unsaved</text>
  <rect x="1000" y="1122" width="120" height="30" class="btn-primary"/>
  <text x="1020" y="1142" class="text-primary small">💾 Save Settings</text>
  
  <!-- Status Cards -->
  <rect x="50" y="1190" width="540" height="80" rx="10" fill="rgba(74,156,148,0.1)" stroke="rgba(74,156,148,0.3)"/>
  <text x="80" y="1220" class="accent-teal small">✅</text>
  <text x="100" y="1220" class="text-primary small" font-weight="500">LLM Configuration</text>
  <text x="100" y="1240" class="text-muted small">Model: gpt-4o-mini</text>
  <text x="520" y="1230" class="text-secondary" font-size="9">[Test]</text>
  <rect x="100" y="1250" width="400" height="18" rx="4" fill="rgba(74,156,148,0.2)"/>
  <text x="115" y="1263" class="accent-teal" font-size="9">✅ Connected successfully</text>
  
  <rect x="610" y="1190" width="540" height="80" rx="10" fill="rgba(74,156,148,0.1)" stroke="rgba(74,156,148,0.3)"/>
  <text x="640" y="1220" class="accent-teal small">✅</text>
  <text x="660" y="1220" class="text-primary small" font-weight="500">Weave Configuration</text>
  <text x="660" y="1240" class="text-muted small">Project: error-analysis-demo</text>
  <text x="1080" y="1230" class="text-secondary" font-size="9">[Test]</text>
  
  <!-- Settings Groups -->
  <rect x="50" y="1290" width="540" height="280" class="panel"/>
  <text x="70" y="1320" class="text-primary" font-size="14" font-weight="500">🤖 LLM Settings</text>
  <text x="70" y="1340" class="text-muted small">Configure the language model</text>
  
  <text x="70" y="1370" class="text-muted small">Provider</text>
  <rect x="70" y="1380" width="500" height="35" class="panel-inner"/>
  <text x="90" y="1403" class="text-primary small">openai</text>
  
  <text x="70" y="1430" class="text-muted small">Model</text>
  <rect x="70" y="1440" width="500" height="35" class="panel-inner"/>
  <text x="90" y="1463" class="text-primary small">gpt-4o-mini</text>
  
  <text x="70" y="1490" class="text-muted small">API Key</text>
  <text x="130" y="1490" class="accent-teal" font-size="9">(stored) ✅</text>
  <rect x="70" y="1500" width="500" height="35" class="panel-inner"/>
  <text x="90" y="1523" class="text-muted small">Enter new value to update</text>
  <text x="540" y="1523" class="text-muted small">👁️</text>
  
  <!-- Weave Settings -->
  <rect x="610" y="1290" width="540" height="280" class="panel"/>
  <text x="630" y="1320" class="text-primary" font-size="14" font-weight="500">🗄️ Weave Settings</text>
  <text x="630" y="1340" class="text-muted small">Configure Weave connection</text>
  
  <text x="630" y="1370" class="text-muted small">W&amp;B API Key</text>
  <text x="720" y="1370" class="accent-teal" font-size="9">(stored) ✅</text>
  <rect x="630" y="1380" width="500" height="35" class="panel-inner"/>
  <text x="650" y="1403" class="text-muted small">Enter new value to update</text>
  <text x="1100" y="1403" class="text-muted small">👁️</text>
  
  <text x="630" y="1430" class="text-muted small">Entity</text>
  <rect x="630" y="1440" width="500" height="35" class="panel-inner"/>
  <text x="650" y="1463" class="text-primary small">ayut</text>
  
  <text x="630" y="1490" class="text-muted small">Project</text>
  <rect x="630" y="1500" width="500" height="35" class="panel-inner"/>
  <text x="650" y="1523" class="text-primary small">error-analysis-demo</text>
  
  <!-- Help Panel -->
  <rect x="50" y="1590" width="1100" height="100" class="panel"/>
  <text x="70" y="1620" class="text-primary" font-size="14" font-weight="500">🔑 Getting API Keys</text>
  
  <text x="70" y="1650" class="text-primary small" font-weight="500">LLM API Keys</text>
  <text x="70" y="1670" class="text-muted small">OpenAI: platform.openai.com/api-keys</text>
  <text x="70" y="1685" class="text-muted small">Anthropic: console.anthropic.com</text>
  
  <text x="500" y="1650" class="text-primary small" font-weight="500">W&amp;B / Weave</text>
  <text x="500" y="1670" class="text-muted small">API Key: wandb.ai/authorize</text>
  <text x="500" y="1685" class="text-muted small">Entity: Your username or team name</text>
  
  <!-- ======================= -->
  <!-- MODAL EXAMPLE -->
  <!-- ======================= -->
  <text x="50" y="1740" class="text-primary title">Modal Component Example</text>
  
  <!-- Modal overlay -->
  <rect x="50" y="1760" width="500" height="220" fill="rgba(0,0,0,0.5)" rx="12"/>
  
  <!-- Modal content -->
  <rect x="100" y="1790" width="400" height="170" class="panel"/>
  <text x="120" y="1820" class="text-primary" font-size="14" font-weight="500">Create Failure Mode</text>
  
  <text x="120" y="1850" class="text-muted small">Name</text>
  <rect x="120" y="1860" width="360" height="28" class="panel-inner"/>
  <text x="135" y="1878" class="text-muted" font-size="9">e.g., Hallucination</text>
  
  <text x="120" y="1905" class="text-muted small">Severity</text>
  <rect x="120" y="1915" width="360" height="28" class="panel-inner"/>
  <text x="135" y="1933" class="text-primary small">Medium ▾</text>
  
  <line x1="120" y1="1945" x2="480" y2="1945" class="divider"/>
  <rect x="350" y="1950" width="55" height="25" rx="4" fill="transparent"/>
  <text x="362" y="1967" class="text-secondary small">Cancel</text>
  <rect x="415" y="1950" width="60" height="25" class="btn-primary"/>
  <text x="430" y="1967" class="text-primary small">Create</text>
  
</svg>

